<svg width="750" height="136" viewBox="0 0 750 136" fill="none" xmlns="http://www.w3.org/2000/svg" xmlns:xlink="http://www.w3.org/1999/xlink">
<g filter="url(#filter1_65)">
<path d="M82,0C36.713,0 0,36.713 0,82L0,136L750,136L750,82C750,36.713 713.288,0 668,0L82,0ZM130,114C154.301,114 174,94.301 174,70C174,45.699 154.301,26 130,26C105.699,26 86,45.699 86,70C86,94.301 105.699,114 130,114Z" clip-rule="evenodd" fill-rule="evenodd" fill="#FCFCFD"/>
</g>
<path d="M132.816,46.996C132.017,46.355 131.024,46.006 130,46.006C128.976,46.006 127.983,46.355 127.184,46.996L111.684,59.43C111.158,59.852 110.734,60.386 110.443,60.994C110.151,61.601 110,62.266 110,62.94L110,85.5C110,86.694 110.474,87.838 111.318,88.682C112.162,89.526 113.307,90 114.5,90L119.5,90C120.693,90 121.838,89.526 122.682,88.682C123.526,87.838 124,86.694 124,85.5L124,74.5C124,73.12 125.12,72 126.5,72L133.5,72C134.88,72 136,73.12 136,74.5L136,85.5C136,86.694 136.474,87.838 137.318,88.682C138.162,89.526 139.307,90 140.5,90L145.5,90C146.693,90 147.838,89.526 148.682,88.682C149.526,87.838 150,86.694 150,85.5L150,62.94C150,62.266 149.849,61.601 149.557,60.994C149.266,60.386 148.842,59.852 148.316,59.43L132.816,46.996Z" fill="#475E3E"/>
<path d="M247.5,49.333C240.412,49.333 234.667,55.079 234.667,62.167C234.667,75 249.833,86.667 258,89.38C266.167,86.667 281.333,75 281.333,62.167C281.333,55.079 275.587,49.333 268.5,49.333C264.16,49.333 260.322,51.488 258,54.786C256.817,53.101 255.244,51.725 253.417,50.776C251.589,49.827 249.559,49.332 247.5,49.333Z" fill="#D0D5DD"/>
<path d="M474.394,47L471,47C470.629,47 470.273,46.852 470.01,46.59C469.747,46.327 469.6,45.971 469.6,45.6C469.6,45.229 469.747,44.873 470.01,44.61C470.273,44.347 470.629,44.2 471,44.2L475.488,44.2C475.801,44.2 476.104,44.305 476.35,44.497C476.596,44.689 476.771,44.958 476.846,45.261L482.158,66.541C482.238,66.898 482.176,67.272 481.984,67.583C481.792,67.895 481.486,68.118 481.131,68.207C480.776,68.295 480.401,68.242 480.085,68.057C479.77,67.872 479.539,67.571 479.442,67.219L474.394,47Z" fill="#D0D5DD"/>
<path d="M507.386,61L485.014,61C484.594,61 484.174,61.048 483.762,61.14C482.306,61.481 481.044,62.385 480.253,63.655C479.461,64.924 479.205,66.455 479.54,67.913L481.732,77.604C482.011,78.85 482.705,79.964 483.701,80.763C484.697,81.562 485.935,81.998 487.212,82L505.194,82C506.47,81.997 507.707,81.56 508.702,80.761C509.697,79.962 510.391,78.849 510.67,77.604L512.863,67.91C513.055,67.085 513.058,66.227 512.873,65.4C512.687,64.573 512.317,63.799 511.791,63.134C511.265,62.47 510.595,61.933 509.832,61.564C509.07,61.194 508.233,61.002 507.386,61Z" clip-rule="evenodd" fill-rule="evenodd" fill="#D0D5DD"/>
<path d="M511.6,86.9C511.6,88.2 511.084,89.446 510.165,90.365C509.246,91.284 508,91.8 506.7,91.8C505.4,91.8 504.154,91.284 503.235,90.365C502.316,89.446 501.8,88.2 501.8,86.9C501.8,85.6 502.316,84.354 503.235,83.435C504.154,82.516 505.4,82 506.7,82C508,82 509.246,82.516 510.165,83.435C511.084,84.354 511.6,85.6 511.6,86.9ZM492,86.9C492,87.543 491.873,88.181 491.627,88.775C491.381,89.37 491.02,89.91 490.565,90.365C490.11,90.82 489.57,91.181 488.975,91.427C488.381,91.673 487.743,91.8 487.1,91.8C486.456,91.8 485.819,91.673 485.225,91.427C484.63,91.181 484.09,90.82 483.635,90.365C483.18,89.91 482.819,89.37 482.573,88.775C482.327,88.181 482.2,87.543 482.2,86.9C482.2,85.6 482.716,84.354 483.635,83.435C484.554,82.516 485.8,82 487.1,82C488.4,82 489.646,82.516 490.565,83.435C491.484,84.354 492,85.6 492,86.9Z" fill="#D0D5DD"/>
<path d="M598,80.667C598,77.838 599.159,75.125 601.222,73.124C603.285,71.124 606.082,70 609,70L631,70C633.917,70 636.715,71.124 638.778,73.124C640.841,75.125 642,77.838 642,80.667C642,82.081 641.42,83.438 640.389,84.438C639.357,85.438 637.958,86 636.5,86L603.5,86C602.041,86 600.642,85.438 599.611,84.438C598.579,83.438 598,82.081 598,80.667Z" fill="#D0D5DD"/>
<path d="M620,66C624.418,66 628,62.418 628,58C628,53.582 624.418,50 620,50C615.582,50 612,53.582 612,58C612,62.418 615.582,66 620,66Z" fill="#D0D5DD"/>
<defs>
<filter id="filter1_65" x="-25" y="-25" width="425" height="118" filterUnits="userSpaceOnUse" color-interpolation-filters="sRGB">
<feFlood flood-opacity="0" result="BackgroundImageFix"/>
<feColorMatrix in="SourceAlpha" type="matrix" values="0 0 0 0 0 0 0 0 0 0 0 0 0 0 0 0 0 0 127 0" result="hardAlpha"/>
<feMorphology radius="0" operator="dilate" in="SourceAlpha" result="0dropshadow"/>
<feOffset dx="0" dy="-1"/>
<feGaussianBlur stdDeviation="12.5"/>
<feComposite in2="hardAlpha" operator="out"/>
<feColorMatrix type="matrix" values="0 0 0 0 0.443137 0 0 0 0 0.443137 0 0 0 0 0.443137 0 0 0 0.2 0"/>
<feBlend mode="normal" in2="BackgroundImageFix" result="0dropshadow"/>
<feBlend mode="normal" in="SourceGraphic" in2="0dropshadow" result="shape"/>
</filter>
</defs>
</svg>
