<svg width="40" height="44" viewBox="0 0 40 44" fill="none" xmlns="http://www.w3.org/2000/svg" xmlns:xlink="http://www.w3.org/1999/xlink">
<path d="M20,5.5C18.079,5.5 16.218,6.165 14.733,7.383C13.247,8.6 12.229,10.295 11.852,12.178L9.995,21.466C9.441,24.239 8.079,26.786 6.08,28.786L5.498,29.365C5.283,29.579 5.129,29.847 5.052,30.141C4.976,30.435 4.98,30.744 5.063,31.036C5.147,31.328 5.307,31.593 5.528,31.801C5.748,32.01 6.021,32.156 6.317,32.224L8.78,32.794C16.163,34.498 23.837,34.498 31.22,32.794L33.68,32.224C33.976,32.156 34.248,32.01 34.468,31.801C34.689,31.592 34.849,31.328 34.933,31.036C35.017,30.745 35.021,30.436 34.945,30.142C34.869,29.848 34.716,29.58 34.502,29.365L33.92,28.786C31.921,26.786 30.559,24.239 30.005,21.466L29.801,20.455C29.684,19.87 29.804,19.262 30.134,18.765C30.465,18.268 30.98,17.923 31.565,17.806C32.15,17.689 32.758,17.809 33.255,18.139C33.752,18.47 34.097,18.985 34.214,19.57L34.418,20.584C34.796,22.486 35.732,24.232 37.103,25.603L37.685,26.185C38.468,26.967 39.028,27.945 39.305,29.017C39.582,30.089 39.567,31.215 39.262,32.279C38.957,33.343 38.372,34.306 37.569,35.068C36.766,35.829 35.773,36.362 34.694,36.61L32.231,37.18C30.128,37.66 28.001,38.02 25.871,38.254C25.586,39.599 24.847,40.806 23.779,41.671C22.71,42.537 21.377,43.009 20.002,43.009C18.626,43.009 17.293,42.537 16.224,41.671C15.156,40.806 14.417,39.599 14.132,38.254C11.993,38.021 9.869,37.661 7.772,37.177L5.306,36.607C4.228,36.358 3.237,35.825 2.435,35.063C1.633,34.302 1.049,33.339 0.744,32.276C0.438,31.213 0.423,30.088 0.7,29.017C0.976,27.945 1.534,26.968 2.315,26.185L2.9,25.6C4.271,24.229 5.207,22.48 5.585,20.581L7.445,11.293C7.794,9.548 8.504,7.894 9.527,6.439C10.551,4.983 11.867,3.756 13.391,2.837C14.915,1.918 16.614,1.327 18.38,1.101C20.145,0.875 21.939,1.019 23.645,1.525C23.928,1.609 24.192,1.748 24.422,1.934C24.651,2.12 24.842,2.35 24.983,2.61C25.124,2.869 25.212,3.154 25.243,3.448C25.273,3.742 25.246,4.039 25.162,4.322C25.077,4.606 24.938,4.87 24.752,5.099C24.566,5.329 24.337,5.519 24.077,5.66C23.817,5.801 23.532,5.889 23.238,5.92C22.944,5.951 22.647,5.923 22.364,5.839C21.597,5.613 20.8,5.498 20,5.5Z" clip-rule="evenodd" fill-rule="evenodd" fill="#344054"/>
<path d="M33.5,14.5C35.091,14.5 36.617,13.868 37.743,12.743C38.868,11.617 39.5,10.091 39.5,8.5C39.5,6.909 38.868,5.383 37.743,4.257C36.617,3.132 35.091,2.5 33.5,2.5C31.909,2.5 30.383,3.132 29.257,4.257C28.132,5.383 27.5,6.909 27.5,8.5C27.5,10.091 28.132,11.617 29.257,12.743C30.383,13.868 31.909,14.5 33.5,14.5Z" clip-rule="evenodd" fill-rule="evenodd" fill="#EB2323"/>
</svg>
