<svg width="18" height="30" viewBox="0 0 18 30" fill="none" xmlns="http://www.w3.org/2000/svg" xmlns:xlink="http://www.w3.org/1999/xlink">
<path d="M0.606,26.273C0.02,26.859 0.02,27.808 0.606,28.394C1.192,28.98 2.142,28.98 2.727,28.394L0.606,26.273ZM15,14L16.061,15.061C16.646,14.475 16.646,13.525 16.061,12.939L15,14ZM2.727,-0.394C2.142,-0.98 1.192,-0.98 0.606,-0.394C0.02,0.192 0.02,1.142 0.606,1.727L2.727,-0.394ZM2.727,28.394L16.061,15.061L13.939,12.939L0.606,26.273L2.727,28.394ZM16.061,12.939L2.727,-0.394L0.606,1.727L13.939,15.061L16.061,12.939Z" fill="#FFFFFF"/>
</svg>
