<svg width="36" height="36" viewBox="0 0 36 36" fill="none" xmlns="http://www.w3.org/2000/svg" xmlns:xlink="http://www.w3.org/1999/xlink">
<path d="M28.847,26.779C28.261,26.194 27.311,26.194 26.725,26.779C26.14,27.365 26.14,28.315 26.725,28.901L28.847,26.779ZM32.885,35.061C33.471,35.646 34.421,35.646 35.007,35.061C35.592,34.475 35.592,33.525 35.007,32.939L32.885,35.061ZM26.725,28.901L32.885,35.061L35.007,32.939L28.847,26.779L26.725,28.901ZM30.668,17.162C30.668,24.712 24.569,30.824 17.058,30.824L17.058,33.824C26.235,33.824 33.668,26.36 33.668,17.162L30.668,17.162ZM17.058,30.824C9.545,30.824 3.446,24.712 3.446,17.164L0.446,17.164C0.446,26.36 7.879,33.824 17.058,33.824L17.058,30.824ZM3.446,17.164C3.446,9.61 9.545,3.5 17.056,3.5L17.056,0.5C7.879,0.5 0.446,7.962 0.446,17.164L3.446,17.164ZM17.056,3.5C24.569,3.5 30.668,9.612 30.668,17.162L33.668,17.162C33.668,7.964 26.235,0.5 17.056,0.5L17.056,3.5Z" fill="#98A2B3"/>
</svg>
