<svg width="24" height="28" viewBox="0 0 24 28" fill="none" xmlns="http://www.w3.org/2000/svg" xmlns:xlink="http://www.w3.org/1999/xlink">
<path d="M14.312,27.088C17.798,24.02 24,17.752 24,12C24,8.817 22.736,5.765 20.485,3.515C18.235,1.264 15.183,0 12,0C8.817,0 5.765,1.264 3.515,3.515C1.264,5.765 0,8.817 0,12C0,17.752 6.2,24.02 9.688,27.088C10.324,27.656 11.147,27.97 12,27.97C12.853,27.97 13.676,27.656 14.312,27.088ZM8,12C8,10.939 8.421,9.922 9.172,9.172C9.922,8.421 10.939,8 12,8C13.061,8 14.078,8.421 14.828,9.172C15.579,9.922 16,10.939 16,12C16,13.061 15.579,14.078 14.828,14.828C14.078,15.579 13.061,16 12,16C10.939,16 9.922,15.579 9.172,14.828C8.421,14.078 8,13.061 8,12Z" fill="#D0D5DD"/>
</svg>
