<svg width="24" height="44" viewBox="0 0 24 44" fill="none" xmlns="http://www.w3.org/2000/svg" xmlns:xlink="http://www.w3.org/1999/xlink">
<path d="M20.586,43.414C21.367,44.195 22.633,44.195 23.414,43.414C24.195,42.633 24.195,41.367 23.414,40.586L20.586,43.414ZM2,22L0.586,20.586C-0.195,21.367 -0.195,22.633 0.586,23.414L2,22ZM23.414,3.414C24.195,2.633 24.195,1.367 23.414,0.586C22.633,-0.195 21.367,-0.195 20.586,0.586L23.414,3.414ZM23.414,40.586L3.414,20.586L0.586,23.414L20.586,43.414L23.414,40.586ZM3.414,23.414L23.414,3.414L20.586,0.586L0.586,20.586L3.414,23.414Z" fill="#FFFFFF"/>
</svg>
