<svg width="48" height="48" viewBox="0 0 48 48" fill="none" xmlns="http://www.w3.org/2000/svg" xmlns:xlink="http://www.w3.org/1999/xlink">
<path d="M4.5,3C4.102,3 3.721,3.158 3.439,3.439C3.158,3.721 3,4.102 3,4.5L3,13.5C3,13.898 2.842,14.279 2.561,14.561C2.279,14.842 1.898,15 1.5,15C1.102,15 0.721,14.842 0.439,14.561C0.158,14.279 0,13.898 0,13.5L0,4.5C0,3.307 0.474,2.162 1.318,1.318C2.162,0.474 3.307,0 4.5,0L13.5,0C13.898,0 14.279,0.158 14.561,0.439C14.842,0.721 15,1.102 15,1.5C15,1.898 14.842,2.279 14.561,2.561C14.279,2.842 13.898,3 13.5,3L4.5,3ZM33,1.5C33,1.102 33.158,0.721 33.439,0.439C33.721,0.158 34.102,0 34.5,0L43.5,0C44.693,0 45.838,0.474 46.682,1.318C47.526,2.162 48,3.307 48,4.5L48,13.5C48,13.898 47.842,14.279 47.561,14.561C47.279,14.842 46.898,15 46.5,15C46.102,15 45.721,14.842 45.439,14.561C45.158,14.279 45,13.898 45,13.5L45,4.5C45,4.102 44.842,3.721 44.561,3.439C44.279,3.158 43.898,3 43.5,3L34.5,3C34.102,3 33.721,2.842 33.439,2.561C33.158,2.279 33,1.898 33,1.5ZM1.5,33C1.898,33 2.279,33.158 2.561,33.439C2.842,33.721 3,34.102 3,34.5L3,43.5C3,43.898 3.158,44.279 3.439,44.561C3.721,44.842 4.102,45 4.5,45L13.5,45C13.898,45 14.279,45.158 14.561,45.439C14.842,45.721 15,46.102 15,46.5C15,46.898 14.842,47.279 14.561,47.561C14.279,47.842 13.898,48 13.5,48L4.5,48C3.307,48 2.162,47.526 1.318,46.682C0.474,45.838 0,44.693 0,43.5L0,34.5C0,34.102 0.158,33.721 0.439,33.439C0.721,33.158 1.102,33 1.5,33ZM46.5,33C46.898,33 47.279,33.158 47.561,33.439C47.842,33.721 48,34.102 48,34.5L48,43.5C48,44.693 47.526,45.838 46.682,46.682C45.838,47.526 44.693,48 43.5,48L34.5,48C34.102,48 33.721,47.842 33.439,47.561C33.158,47.279 33,46.898 33,46.5C33,46.102 33.158,45.721 33.439,45.439C33.721,45.158 34.102,45 34.5,45L43.5,45C43.898,45 44.279,44.842 44.561,44.561C44.842,44.279 45,43.898 45,43.5L45,34.5C45,34.102 45.158,33.721 45.439,33.439C45.721,33.158 46.102,33 46.5,33ZM9,13.5C9,13.102 9.158,12.721 9.439,12.439C9.721,12.158 10.102,12 10.5,12C10.898,12 11.279,12.158 11.561,12.439C11.842,12.721 12,13.102 12,13.5L12,34.5C12,34.898 11.842,35.279 11.561,35.561C11.279,35.842 10.898,36 10.5,36C10.102,36 9.721,35.842 9.439,35.561C9.158,35.279 9,34.898 9,34.5L9,13.5ZM15,13.5C15,13.102 15.158,12.721 15.439,12.439C15.721,12.158 16.102,12 16.5,12C16.898,12 17.279,12.158 17.561,12.439C17.842,12.721 18,13.102 18,13.5L18,34.5C18,34.898 17.842,35.279 17.561,35.561C17.279,35.842 16.898,36 16.5,36C16.102,36 15.721,35.842 15.439,35.561C15.158,35.279 15,34.898 15,34.5L15,13.5ZM21,13.5C21,13.102 21.158,12.721 21.439,12.439C21.721,12.158 22.102,12 22.5,12C22.898,12 23.279,12.158 23.561,12.439C23.842,12.721 24,13.102 24,13.5L24,34.5C24,34.898 23.842,35.279 23.561,35.561C23.279,35.842 22.898,36 22.5,36C22.102,36 21.721,35.842 21.439,35.561C21.158,35.279 21,34.898 21,34.5L21,13.5ZM27,13.5C27,13.102 27.158,12.721 27.439,12.439C27.721,12.158 28.102,12 28.5,12L31.5,12C31.898,12 32.279,12.158 32.561,12.439C32.842,12.721 33,13.102 33,13.5L33,34.5C33,34.898 32.842,35.279 32.561,35.561C32.279,35.842 31.898,36 31.5,36L28.5,36C28.102,36 27.721,35.842 27.439,35.561C27.158,35.279 27,34.898 27,34.5L27,13.5ZM36,13.5C36,13.102 36.158,12.721 36.439,12.439C36.721,12.158 37.102,12 37.5,12C37.898,12 38.279,12.158 38.561,12.439C38.842,12.721 39,13.102 39,13.5L39,34.5C39,34.898 38.842,35.279 38.561,35.561C38.279,35.842 37.898,36 37.5,36C37.102,36 36.721,35.842 36.439,35.561C36.158,35.279 36,34.898 36,34.5L36,13.5Z" fill="#FFFFFF"/>
</svg>
